<svg id="Layer_1" data-name="Layer 1" xmlns="http://www.w3.org/2000/svg" viewBox="0 0 1430.93 426.31"><defs><style>.cls-1{fill:#a91314;}.cls-2{fill:#fffffc;}.cls-3{fill:#19255a;}.cls-4{fill:#012169;}.cls-5{fill:#575756;}</style></defs><path class="cls-1" d="M146.19,215a66.78,66.78,0,0,0,12.26,38.61H118.11c-10.13-23.92-10-54.44.41-78.22h40.65A66.77,66.77,0,0,0,146.19,215Z"/><path class="cls-1" d="M253.17,120.3V161c-21.49-17-56.61-17.43-78.52-.9V119.78C198.66,109.61,229.34,109.82,253.17,120.3Z"/><path class="cls-1" d="M253.17,268.86v40.73c-23.83,10.49-54.51,10.69-78.52.53V269.75C196.56,286.29,231.68,285.86,253.17,268.86Z"/><path class="cls-1" d="M316,215a102.13,102.13,0,0,1-7.54,38.61H268.1c16.45-21.82,16.1-56.73-.71-78.22H308A102.08,102.08,0,0,1,316,215Z"/><path class="cls-2" d="M393.83,326.37a220.4,220.4,0,0,1-17.3,23.71l-40.89-29.79a161.89,161.89,0,0,0,14.35-19Z"/><path class="cls-3" d="M335.64,320.29l40.89,29.79A213.93,213.93,0,0,1,278.78,416V362.09A163.45,163.45,0,0,0,335.64,320.29Z"/><path class="cls-3" d="M382,343.36c-.09.11-.17.22-.27.33.09-.12.18-.22.26-.34Z"/><path class="cls-3" d="M383.73,85.26l-46.15,23a163.46,163.46,0,0,0-58.8-44.06V10.28A214,214,0,0,1,383.73,85.26Z"/><path class="cls-2" d="M422.6,253.56a212.78,212.78,0,0,1-28.77,72.81L350,301.3a161.85,161.85,0,0,0,20.93-47.74Z"/><path class="cls-2" d="M278.78,362.09V416a210.68,210.68,0,0,1-25.61,6.55V370.92A161.93,161.93,0,0,0,278.78,362.09Z"/><path class="cls-2" d="M423.1,175.34H371.56a162.1,162.1,0,0,0-34-67.07l46.15-23C404.47,113.63,416.18,139.69,423.1,175.34Z"/><path class="cls-2" d="M174.65,371.23v51.58a210,210,0,0,1-26.23-6.58V362.37A160.54,160.54,0,0,0,174.65,371.23Z"/><path class="cls-1" d="M253.17,3.73V55.38a162.47,162.47,0,0,0-39.89-5h0a162.84,162.84,0,0,0-39.26,5V3.73A211.74,211.74,0,0,1,253.17,3.73Z"/><path class="cls-2" d="M278.78,10.28V64.21a161.93,161.93,0,0,0-25.61-8.83V3.73A210.68,210.68,0,0,1,278.78,10.28Z"/><path class="cls-1" d="M253.17,370.92v51.65a214.56,214.56,0,0,1-78.52.24V371.23A163.7,163.7,0,0,0,253.17,370.92Z"/><path class="cls-1" d="M426.46,213.15a212.8,212.8,0,0,1-3.86,40.41H370.92a164,164,0,0,0,.64-78.22H423.1A214.14,214.14,0,0,1,426.46,213.15Z"/><path class="cls-3" d="M148.42,362.37v53.86C25.26,378.78-36.92,230.44,23.13,116.68l45,22.87C25.22,220.3,64.11,327.39,148.42,362.37Z"/><path class="cls-1" d="M8.91,152.26c-.05.13-.08.27-.12.4h0C8.83,152.53,8.87,152.39,8.91,152.26Z"/><path class="cls-3" d="M87.44,39.27c-32.78.56-32.78,49.33,0,49.88C120.23,88.59,120.23,39.82,87.44,39.27Z"/><path class="cls-1" d="M396,103.46l-44.89,23.31a162.79,162.79,0,0,1,9.75,17.89q22.14-12.18,44.27-24.37Z"/><path class="cls-3" d="M409.72,130.3l-44,25.75,52.87-.59a232,232,0,0,0-8.84-25.16Z"/><path class="cls-1" d="M404.2,307.91c-3.07,6.19-6.77,12.75-10.37,18.46L350,301.3a157.79,157.79,0,0,0,10.07-18Z"/><path class="cls-3" d="M408.9,297.85,365.71,273l52.2-.06A213.14,213.14,0,0,1,408.9,297.85Z"/><path class="cls-1" d="M522.52,60a18.31,18.31,0,0,1,19,19,18.18,18.18,0,0,1-5.35,13.42,20,20,0,0,1-27.25,0A18.18,18.18,0,0,1,503.55,79a18.31,18.31,0,0,1,19-19Zm-18,50.07h35.73v109H504.56Z"/><path class="cls-4" d="M635.17,75.31a82.26,82.26,0,0,1,30.39,5.45,74.52,74.52,0,0,1,24.22,15.35,70.21,70.21,0,0,1,16.15,23.11A71.29,71.29,0,0,1,711.69,148a73.15,73.15,0,0,1-5.76,29.17,70.65,70.65,0,0,1-16.15,23.42,74.71,74.71,0,0,1-24.22,15.55,85.68,85.68,0,0,1-60.67,0,74.35,74.35,0,0,1-24.33-15.55,70.8,70.8,0,0,1-16.15-23.42A73.32,73.32,0,0,1,558.66,148a72.17,72.17,0,0,1,5.75-28.87A69,69,0,0,1,580.56,96a74.92,74.92,0,0,1,24.33-15.25A82.47,82.47,0,0,1,635.17,75.31Zm.41,30.89a37.56,37.56,0,0,0-27.56,12,42.61,42.61,0,0,0-8.38,13.33,44.44,44.44,0,0,0-3,16.65,45.44,45.44,0,0,0,3,16.66,41.33,41.33,0,0,0,8.48,13.53,39.93,39.93,0,0,0,12.52,9,35.57,35.57,0,0,0,14.94,3.23,34.87,34.87,0,0,0,14.83-3.23,38.05,38.05,0,0,0,12.22-9,41.8,41.8,0,0,0,8.18-13.53,46.88,46.88,0,0,0,2.92-16.66,45.85,45.85,0,0,0-2.92-16.65,42.27,42.27,0,0,0-8.18-13.33,36.89,36.89,0,0,0-12.22-8.88A35.87,35.87,0,0,0,635.58,106.2Z"/><path class="cls-4" d="M792.24,77.53q27,0,42,13t14.94,36.64q0,24.83-14.94,38.66t-42,13.83H750.85L767,163.54v55.52H730.06V77.53Zm-1.82,73.09q11.31,0,17.46-5.66T814,128.21q0-10.7-6.16-16.15t-17.46-5.45H750.85L767,90.45v76.32l-16.15-16.15Z"/><path class="cls-4" d="M867.33,77.53H979v29.08h-74.7v27.05h67.43v28.87H904.28V190H981v29.08H867.33Z"/><path class="cls-4" d="M1009.2,77.74h32.5l74.09,98.92-9.69,3.23V77.74h34.12V219.26h-32.3l-74.09-98.52,9.89-3.23V219.26H1009.2Z"/><path class="cls-4" d="M1167.88,77.74h111.64v29.07h-74.7v27.05h67.43v28.87h-67.43v27.46h76.72v29.07H1167.88Z"/><path class="cls-4" d="M1367.74,77.74q28.27,0,43.61,13t15.34,36.64q0,24.82-15.34,38.66t-43.61,13.83h-26.65v39.37h-36.94V77.74Zm0,73.08q11.31,0,17.57-5.65t6.25-16.76q0-10.69-6.25-16.15t-17.57-5.45h-26.65v44Zm-6.46,15.54h35.94l33.71,52.9h-41.79Z"/><path class="cls-1" d="M506.67,266.53h7.94v35.22h-7.94Z"/><path class="cls-1" d="M548,254.2a26.09,26.09,0,0,1,9.78,1.82,24.12,24.12,0,0,1,13.25,12.74,22.91,22.91,0,0,1,1.92,9.38,23.41,23.41,0,0,1-1.92,9.45,24,24,0,0,1-5.31,7.7,24.53,24.53,0,0,1-7.94,5.14,26.8,26.8,0,0,1-19.57,0,24.48,24.48,0,0,1-7.93-5.14,23.87,23.87,0,0,1-5.32-7.7,23.58,23.58,0,0,1-1.91-9.45,23.28,23.28,0,0,1,1.91-9.41,23.62,23.62,0,0,1,5.32-7.64,24.47,24.47,0,0,1,7.93-5.07A26.14,26.14,0,0,1,548,254.2Zm.06,6.73a16.34,16.34,0,0,0-6.55,1.31,17.07,17.07,0,0,0-5.42,3.66,16.89,16.89,0,0,0-3.66,5.48,18,18,0,0,0,0,13.55,17.69,17.69,0,0,0,3.7,5.55,17.23,17.23,0,0,0,5.41,3.73,16.28,16.28,0,0,0,13,0,16.43,16.43,0,0,0,5.35-3.73,17.94,17.94,0,0,0,3.6-5.55,17.59,17.59,0,0,0,1.31-6.79,17.4,17.4,0,0,0-1.31-6.76,17.74,17.74,0,0,0-3.6-5.48,16.46,16.46,0,0,0-11.84-5Z"/><path class="cls-1" d="M600.21,254.67q8.88,0,13.75,4.2t4.88,11.81q0,7.94-4.88,12.34t-13.75,4.4H585.89l3.49-3.5v17.83h-7.93V254.67Zm-.33,26q5.45,0,8.4-2.39t3-7.36q0-4.77-3-7.1c-2-1.54-4.77-2.32-8.4-2.32h-14l3.49-3.49v26.16l-3.49-3.5Z"/><path class="cls-1" d="M626.71,254.67h33.62v6.79H634.64v13.25h23v6.73h-23V295h26.5v6.8H626.71Z"/><path class="cls-1" d="M670.82,254.67h7.8L705.86,292l-2,.68v-38h7.8v47.08h-7.8l-27.17-37.26,2.09-.67v37.93h-7.94Z"/><path class="cls-1" d="M724.08,254.67H757.7v6.79H732v13.25h23v6.73H732V295h26.49v6.8H724.08Z"/><path class="cls-1" d="M787.29,254.67q9.09,0,14,4.2t4.94,11.81q0,7.94-4.94,12.34t-14,4.4H776.13v14.33h-7.94V254.67Zm0,26q5.46,0,8.44-2.39t3-7.36q0-4.77-3-7.1c-2-1.54-4.8-2.32-8.44-2.32H776.13v19.17Zm.27,3.7h7.8l11.7,17.42h-9Z"/><path class="cls-1" d="M829.39,254.67h37.73v6.79H852.19v40.29h-7.94V261.46H829.39Z"/><path class="cls-1" d="M893,254.67q9.07,0,14,4.2T912,270.68q0,7.94-4.94,12.34t-14,4.4H881.84v14.33h-7.93V254.67Zm0,26q5.44,0,8.44-2.39t3-7.36q0-4.77-3-7.1c-2-1.54-4.81-2.32-8.44-2.32H881.84v19.17Zm.27,3.7h7.8l11.7,17.42h-9Z"/><path class="cls-1" d="M937.19,254.67h8.14l20.57,47.08h-8.47L941,262.67l-16.34,39.08h-8.27Zm-10.43,29.46h28.18v6.72H926.76Z"/><path class="cls-1" d="M972.16,254.67h7.93v47.08h-7.93Z"/><path class="cls-1" d="M992.46,254.67h7.81L1027.5,292l-2,.68v-38h7.8v47.08h-7.8l-27.16-37.26,2.08-.67v37.93h-7.94Z"/><path class="cls-1" d="M1045.72,254.67h7.94v47.08h-7.94Z"/><path class="cls-1" d="M1066,254.67h7.8L1101.07,292l-2,.68v-38h7.8v47.08h-7.8l-27.17-37.26,2.09-.67v37.93H1066Z"/><path class="cls-1" d="M1154.19,266.31a19.73,19.73,0,0,0-6.28-4,19.49,19.49,0,0,0-7.3-1.44,16.76,16.76,0,0,0-6.72,1.34,17.48,17.48,0,0,0-5.45,3.7,17.08,17.08,0,0,0-3.67,5.48,17.4,17.4,0,0,0-1.31,6.76,17.59,17.59,0,0,0,1.31,6.79,17.27,17.27,0,0,0,3.67,5.55,17,17,0,0,0,12.24,5.08,19.05,19.05,0,0,0,6.82-1.35,22.81,22.81,0,0,0,6.36-3.63l4.57,5.52a28,28,0,0,1-5.41,3.22,32.31,32.31,0,0,1-6.36,2.19,28.72,28.72,0,0,1-6.52.77,25,25,0,0,1-9.72-1.85,24.76,24.76,0,0,1-7.87-5.14,23.42,23.42,0,0,1-5.27-7.7,23.73,23.73,0,0,1-1.89-9.45,22.91,22.91,0,0,1,1.92-9.38,23.79,23.79,0,0,1,5.35-7.63,24.21,24.21,0,0,1,8-5.11,26.82,26.82,0,0,1,9.92-1.82,27.33,27.33,0,0,1,6.62.81,30.23,30.23,0,0,1,6.22,2.28,22.9,22.9,0,0,1,5.25,3.57Zm-2.69,12.44h6.93V296.1h-6.93Z"/><path class="cls-1" d="M1222.72,266.31a20.1,20.1,0,0,0-13.58-5.45,16.78,16.78,0,0,0-6.73,1.34,17.59,17.59,0,0,0-5.45,3.7,16.89,16.89,0,0,0-3.66,5.48,17.22,17.22,0,0,0-1.31,6.76,17.41,17.41,0,0,0,1.31,6.79,17.12,17.12,0,0,0,9.14,9.28,16.9,16.9,0,0,0,6.76,1.35,19.1,19.1,0,0,0,6.83-1.35,22.75,22.75,0,0,0,6.35-3.63l4.58,5.52a28.12,28.12,0,0,1-5.42,3.22,32.44,32.44,0,0,1-6.35,2.19,28.81,28.81,0,0,1-6.53.77,25,25,0,0,1-9.71-1.85,24.65,24.65,0,0,1-7.87-5.14,23.3,23.3,0,0,1-5.28-7.7,23.73,23.73,0,0,1-1.88-9.45,23.07,23.07,0,0,1,1.91-9.38,23.79,23.79,0,0,1,5.35-7.63,24.26,24.26,0,0,1,8-5.11,26.79,26.79,0,0,1,9.92-1.82,27.39,27.39,0,0,1,6.62.81,30.44,30.44,0,0,1,6.22,2.28,23.05,23.05,0,0,1,5.24,3.57ZM1220,278.75H1227V296.1H1220Z"/><path class="cls-1" d="M1257.28,254.67q9.09,0,14,4.2t4.94,11.81q0,7.94-4.94,12.34t-14,4.4h-11.16v14.33h-7.93V254.67Zm0,26q5.46,0,8.44-2.39t3-7.36q0-4.77-3-7.1c-2-1.54-4.8-2.32-8.44-2.32h-11.16v19.17Zm.27,3.7h7.8l11.71,17.42h-9Z"/><path class="cls-1" d="M1307.85,254.2a26.14,26.14,0,0,1,9.79,1.82,24.2,24.2,0,0,1,13.25,12.74,23.07,23.07,0,0,1,1.91,9.38,23.58,23.58,0,0,1-1.91,9.45,23.87,23.87,0,0,1-5.32,7.7,24.38,24.38,0,0,1-7.93,5.14,26.8,26.8,0,0,1-19.57,0,24.53,24.53,0,0,1-7.94-5.14,24,24,0,0,1-5.31-7.7,23.41,23.41,0,0,1-1.91-9.45,23.11,23.11,0,0,1,1.91-9.41,23.75,23.75,0,0,1,5.31-7.64,24.51,24.51,0,0,1,7.94-5.07A26.13,26.13,0,0,1,1307.85,254.2Zm.07,6.73a16.39,16.39,0,0,0-6.56,1.31,17.05,17.05,0,0,0-9.07,9.14,18,18,0,0,0,0,13.55,17.69,17.69,0,0,0,3.7,5.55,17.23,17.23,0,0,0,5.41,3.73,16.28,16.28,0,0,0,13,0,16.54,16.54,0,0,0,5.35-3.73,17.74,17.74,0,0,0,3.59-5.55,17.41,17.41,0,0,0,1.32-6.79,17.23,17.23,0,0,0-1.32-6.76,17.53,17.53,0,0,0-3.59-5.48,16.46,16.46,0,0,0-11.84-5Z"/><path class="cls-1" d="M1348.27,282.45q0,6.12,3.36,9.61a12,12,0,0,0,9.08,3.5,11.8,11.8,0,0,0,9-3.46q3.28-3.47,3.29-9.65V254.67h7.94v27.78a21.85,21.85,0,0,1-2.43,10.59,16.4,16.4,0,0,1-7,6.86,22.88,22.88,0,0,1-10.79,2.38,23.27,23.27,0,0,1-10.89-2.38,16.62,16.62,0,0,1-7-6.86,21.64,21.64,0,0,1-2.46-10.59V254.67h7.94Z"/><path class="cls-1" d="M1411.08,254.67q8.88,0,13.75,4.2t4.88,11.81q0,7.94-4.88,12.34t-13.75,4.4h-14.32l3.49-3.5v17.83h-7.93V254.67Zm-.34,26c3.63,0,6.44-.8,8.41-2.39s3-4,3-7.36-1-5.55-3-7.1-4.78-2.32-8.41-2.32h-14l3.49-3.49v26.16l-3.49-3.5Z"/><path class="cls-5" d="M505.4,328.48h25.14l-.06,5.4H511.71V345h17v5.34h-17v15.56H505.4Z"/><path class="cls-5" d="M562,328.48q7.23,0,11.15,3.34t3.93,9.39q0,6.32-3.93,9.81T562,354.52h-8.87v11.39h-6.31V328.48Zm0,20.64a10.53,10.53,0,0,0,6.71-1.89q2.38-1.91,2.38-5.86a6.68,6.68,0,0,0-2.38-5.64,10.71,10.71,0,0,0-6.71-1.85h-8.87v15.24Zm.22,2.94h6.2l9.3,13.85h-7.16Z"/><path class="cls-5" d="M612.94,328.11a20.82,20.82,0,0,1,7.78,1.44,19.21,19.21,0,0,1,10.53,10.14,18.14,18.14,0,0,1,1.53,7.46,18.58,18.58,0,0,1-1.53,7.51,18.88,18.88,0,0,1-4.22,6.12,19.46,19.46,0,0,1-6.31,4.09,21.32,21.32,0,0,1-15.56,0,19.46,19.46,0,0,1-6.31-4.09,19.06,19.06,0,0,1-4.23-6.12,18.74,18.74,0,0,1-1.52-7.51,18.54,18.54,0,0,1,1.52-7.49,18.85,18.85,0,0,1,4.23-6.07,19.33,19.33,0,0,1,6.31-4A20.82,20.82,0,0,1,612.94,328.11Zm0,5.35a13,13,0,0,0-5.21,1,13.53,13.53,0,0,0-7.22,7.27,13.87,13.87,0,0,0-1,5.38,13.56,13.56,0,0,0,1.07,5.4,14,14,0,0,0,7.24,7.38,13,13,0,0,0,10.32,0,13.24,13.24,0,0,0,4.25-3,14.23,14.23,0,0,0,2.87-4.41,14.08,14.08,0,0,0,1-5.4,13.76,13.76,0,0,0-3.91-9.74,13.06,13.06,0,0,0-9.41-4Z"/><path class="cls-5" d="M650.21,328.48h7.33l12.94,25.4,12.83-25.4h7.33v37.43h-5.83l0-28.6L672.46,362h-4L656,337.31v28.6h-5.83Z"/><path class="cls-5" d="M736.3,328.48h6.31v37.43H736.3Z"/><path class="cls-5" d="M763.15,328.48h6.2L791,358.16l-1.61.54V328.48h6.21v37.43H789.4l-21.6-29.62,1.66-.53v30.15h-6.31Z"/><path class="cls-5" d="M839,337.15a21.89,21.89,0,0,0-7.75-3.11,18.51,18.51,0,0,0-3.21-.32,8.15,8.15,0,0,0-4.44,1.07,3.48,3.48,0,0,0-1.65,3.1,4.11,4.11,0,0,0,1.09,3,8,8,0,0,0,2.89,1.87c1.19.48,2.51.94,4,1.37s2.87.9,4.3,1.41a18,18,0,0,1,4,2,9.22,9.22,0,0,1,2.89,3.13,9.66,9.66,0,0,1,1.07,4.78,9.35,9.35,0,0,1-1.82,5.75,11.74,11.74,0,0,1-5,3.77,18.75,18.75,0,0,1-7.3,1.34,21.06,21.06,0,0,1-5.72-.78A24,24,0,0,1,817,363.4a22.39,22.39,0,0,1-4.36-3.1l2.73-5.19a22.69,22.69,0,0,0,4.09,3,20.54,20.54,0,0,0,4.39,1.87,15.06,15.06,0,0,0,4.2.64,9,9,0,0,0,5.16-1.28,4.12,4.12,0,0,0,1.84-3.59,4.22,4.22,0,0,0-1.1-3,8.34,8.34,0,0,0-2.88-1.89,32.16,32.16,0,0,0-4-1.34c-1.44-.39-2.89-.85-4.33-1.37a17.8,17.8,0,0,1-4-1.95,9.08,9.08,0,0,1-2.89-3.05,9.28,9.28,0,0,1-1.09-4.75,9,9,0,0,1,1.71-5.49,11.07,11.07,0,0,1,4.78-3.61,18.53,18.53,0,0,1,7.14-1.28,23.6,23.6,0,0,1,7.06,1.07,24,24,0,0,1,6,2.78Z"/><path class="cls-5" d="M860.15,328.48h6.31v37.43h-6.31Z"/><path class="cls-5" d="M914.75,337.73a15.92,15.92,0,0,0-5-3.18,15.62,15.62,0,0,0-5.81-1.15,13.3,13.3,0,0,0-5.34,1.07,14.06,14.06,0,0,0-4.33,2.94,13.53,13.53,0,0,0-2.92,4.36,13.87,13.87,0,0,0-1,5.38,14.08,14.08,0,0,0,1,5.4,13.73,13.73,0,0,0,7.27,7.38A13.53,13.53,0,0,0,904,361a15.35,15.35,0,0,0,5.43-1.07,18.64,18.64,0,0,0,5.05-2.89l3.64,4.38a22.23,22.23,0,0,1-4.31,2.57,26.44,26.44,0,0,1-5,1.74,22.69,22.69,0,0,1-5.19.61,20,20,0,0,1-7.73-1.47,19.62,19.62,0,0,1-6.25-4.09,18.67,18.67,0,0,1-4.2-6.12,18.9,18.9,0,0,1-1.5-7.51,18.14,18.14,0,0,1,1.53-7.46,18.77,18.77,0,0,1,4.25-6.07,19.33,19.33,0,0,1,6.39-4.07,21.34,21.34,0,0,1,7.88-1.44,21.72,21.72,0,0,1,5.27.64,23.66,23.66,0,0,1,4.95,1.82,18.21,18.21,0,0,1,4.17,2.83Zm-2.14,9.9h5.51v13.79h-5.51Z"/><path class="cls-5" d="M937.74,328.48h6.31V344.9h19.84V328.48h6.31v37.43h-6.31V350.25H944.05v15.66h-6.31Z"/><path class="cls-5" d="M986.29,328.48h30v5.4h-11.87v32h-6.31v-32H986.29Z"/><path class="cls-5" d="M1053.08,328.48h30v5.4h-11.87v32h-6.31v-32h-11.82Z"/><path class="cls-5" d="M1113.67,328.11a20.82,20.82,0,0,1,7.78,1.44A19.21,19.21,0,0,1,1132,339.69a18.14,18.14,0,0,1,1.53,7.46,18.58,18.58,0,0,1-1.53,7.51,18.88,18.88,0,0,1-4.22,6.12,19.46,19.46,0,0,1-6.31,4.09,21.32,21.32,0,0,1-15.56,0,19.46,19.46,0,0,1-6.31-4.09,19.06,19.06,0,0,1-4.23-6.12,18.74,18.74,0,0,1-1.52-7.51,18.54,18.54,0,0,1,1.52-7.49,18.85,18.85,0,0,1,4.23-6.07,19.33,19.33,0,0,1,6.31-4A20.82,20.82,0,0,1,1113.67,328.11Zm0,5.35a13,13,0,0,0-5.21,1,13.56,13.56,0,0,0-8.26,12.65,13.56,13.56,0,0,0,1.07,5.4,14,14,0,0,0,7.24,7.38,13,13,0,0,0,10.32,0,13.24,13.24,0,0,0,4.25-3,14.23,14.23,0,0,0,2.87-4.41,14.08,14.08,0,0,0,1-5.4,13.76,13.76,0,0,0-3.91-9.74,13.06,13.06,0,0,0-9.41-4Z"/><path class="cls-5" d="M1176.07,328.48h6.31v37.43h-6.31Z"/><path class="cls-5" d="M1202.92,328.48h7.32l12.94,25.4,12.84-25.4h7.32v37.43h-5.82l-.06-28.6-12.3,24.7h-4l-12.4-24.7v28.6h-5.83Z"/><path class="cls-5" d="M1278.8,328.48q7,0,10.93,3.34t3.88,9.39q0,6.32-3.88,9.81t-10.93,3.5h-11.39l2.78-2.78v14.17h-6.31V328.48Zm-.27,20.64q4.34,0,6.68-1.89t2.36-5.86a6.72,6.72,0,0,0-2.36-5.64,10.58,10.58,0,0,0-6.68-1.85h-11.12l2.78-2.78v20.8l-2.78-2.78Z"/><path class="cls-5" d="M1319.87,328.48h6.47l16.36,37.43H1336l-13-31.06-13,31.06h-6.58Zm-8.29,23.42H1334v5.35h-22.4Z"/><path class="cls-5" d="M1384.52,338.22a14.67,14.67,0,0,0-4.82-3.53,13.19,13.19,0,0,0-5.61-1.29,13.21,13.21,0,0,0-9.49,4,13.21,13.21,0,0,0-2.86,4.36,14,14,0,0,0-1,5.37,13.88,13.88,0,0,0,1,5.32,13.21,13.21,0,0,0,2.86,4.36,13.58,13.58,0,0,0,4.27,2.94,12.73,12.73,0,0,0,5.22,1.07,13.68,13.68,0,0,0,5.56-1.2,16.41,16.41,0,0,0,4.87-3.29l3.74,3.9a20.75,20.75,0,0,1-4.25,3.26,21.4,21.4,0,0,1-5,2.14,18.78,18.78,0,0,1-5.26.75,19.68,19.68,0,0,1-7.65-1.47,19,19,0,0,1-10.32-10.21,18.9,18.9,0,0,1-1.5-7.51,18.45,18.45,0,0,1,1.5-7.46,18.78,18.78,0,0,1,4.2-6.07,19.24,19.24,0,0,1,6.25-4.07,20.41,20.41,0,0,1,7.73-1.44,20.1,20.1,0,0,1,5.24.69,22.22,22.22,0,0,1,4.87,2,19.1,19.1,0,0,1,4.12,3.1Z"/><path class="cls-5" d="M1400.93,328.48h30v5.4h-11.87v32h-6.31v-32h-11.82Z"/><circle class="cls-1" cx="510.64" cy="256.7" r="5.11"/></svg>