<?xml version="1.0" encoding="utf-8"?>
<!-- Generator: Adobe Illustrator 21.0.0, SVG Export Plug-In . SVG Version: 6.00 Build 0)  -->
<svg version="1.1" id="Layer_1" xmlns="http://www.w3.org/2000/svg" xmlns:xlink="http://www.w3.org/1999/xlink" x="0px" y="0px"
	 viewBox="0 0 1430.9 426.3" style="enable-background:new 0 0 1430.9 426.3;" xml:space="preserve">
<style type="text/css">
	.st0{clip-path:url(#SVGID_2_);fill:#A91314;}
	.st1{clip-path:url(#SVGID_2_);fill:#FFFFFC;}
	.st2{clip-path:url(#SVGID_2_);fill:#19255B;}
	.st3{clip-path:url(#SVGID_2_);fill:#012169;}
	.st4{display:none;clip-path:url(#SVGID_2_);fill:#A91314;}
	.st5{display:none;clip-path:url(#SVGID_2_);fill:#575756;}
</style>
<g>
	<defs>
		<rect id="SVGID_1_" width="1430.9" height="426.3"/>
	</defs>
	<clipPath id="SVGID_2_">
		<use xlink:href="#SVGID_1_"  style="overflow:visible;"/>
	</clipPath>
	<path class="st0" d="M146.2,214.9c0,14.4,4.6,27.7,12.3,38.6h-40.3c-10.1-23.9-10-54.4,0.4-78.2h40.7
		C151,186.4,146.2,200.1,146.2,214.9"/>
	<path class="st0" d="M253.2,120.3V161c-21.5-17-56.6-17.4-78.5-0.9v-40.4C198.7,109.6,229.3,109.8,253.2,120.3"/>
	<path class="st0" d="M253.2,268.9v40.7c-23.8,10.5-54.5,10.7-78.5,0.5v-40.4C196.6,286.3,231.7,285.9,253.2,268.9"/>
	<path class="st0" d="M316,214.9c0,13.6-2.7,26.7-7.5,38.6h-40.3c16.4-21.8,16.1-56.7-0.7-78.2H308C313.2,187.5,316,200.9,316,214.9
		"/>
	<path class="st1" d="M393.8,326.4c-4.6,7.4-11.1,16.4-17.3,23.7c-13.6-9.9-27.3-19.9-40.9-29.8c5.2-6,10-12.3,14.3-19
		C364.6,309.7,379.2,318,393.8,326.4"/>
	<path class="st2" d="M335.6,320.3c13.6,9.9,27.3,19.9,40.9,29.8c-25.5,30.3-59.2,53.5-97.7,65.9v-53.9
		C300.7,352.4,320.1,338.1,335.6,320.3"/>
	<path class="st2" d="M381.9,343.4c-0.1,0.1-0.2,0.2-0.3,0.3C381.8,343.6,381.9,343.5,381.9,343.4L381.9,343.4z"/>
	<path class="st2" d="M383.7,85.3l-46.2,23c-15.9-18.8-36-34-58.8-44.1V10.3C321,24,357.6,50.5,383.7,85.3"/>
	<path class="st1" d="M422.6,253.6c-4.6,24.9-15,51.1-28.8,72.8c-14.6-8.4-29.2-16.7-43.8-25.1c9.5-14.7,16.6-30.7,20.9-47.7H422.6z
		"/>
	<path class="st1" d="M278.8,362.1V416c-8.3,2.7-16.9,4.9-25.6,6.6v-51.7C262,368.7,270.6,365.7,278.8,362.1"/>
	<path class="st1" d="M423.1,175.3h-51.5c-5.9-24.7-17.6-47.7-34-67.1l46.2-23C404.5,113.6,416.2,139.7,423.1,175.3"/>
	<path class="st1" d="M174.7,371.2v51.6c-8.9-1.6-17.7-3.9-26.2-6.6v-53.9C156.8,366,165.6,369,174.7,371.2"/>
	<path class="st0" d="M253.2,3.7v51.6c-12.8-3.2-26.1-4.9-39.9-4.9v0c-13.5,0.1-26.7,1.8-39.3,5V3.7C199.6-1.2,227.6-1.2,253.2,3.7"
		/>
	<path class="st1" d="M278.8,10.3v53.9c-8.2-3.6-16.8-6.6-25.6-8.8V3.7C261.9,5.4,270.4,7.6,278.8,10.3"/>
	<path class="st0" d="M253.2,370.9v51.7c-25.3,4.9-53.2,5-78.5,0.2v-51.6C199.7,377.5,228.2,377.4,253.2,370.9"/>
	<path class="st0" d="M426.5,213.2c0,13.8-1.3,27.3-3.9,40.4h-51.7c6.5-24.8,6.7-53.3,0.6-78.2h51.5
		C425.3,187.6,426.5,200.3,426.5,213.2"/>
	<path class="st2" d="M148.4,362.4v53.9C25.3,378.8-36.9,230.4,23.1,116.7c11.2,5.7,33.8,17.2,45,22.9
		C25.2,220.3,64.1,327.4,148.4,362.4"/>
	<path class="st0" d="M8.9,152.3c0,0.1-0.1,0.3-0.1,0.4h0C8.8,152.5,8.9,152.4,8.9,152.3"/>
	<path class="st2" d="M87.4,39.3c-32.8,0.6-32.8,49.3,0,49.9C120.2,88.6,120.2,39.8,87.4,39.3"/>
	<path class="st0" d="M396,103.5c-15,7.8-29.9,15.5-44.9,23.3c3.4,5.4,7.1,12.2,9.8,17.9c14.8-8.1,29.5-16.2,44.3-24.4
		C402.1,114.7,399.1,109.1,396,103.5"/>
	<path class="st2" d="M409.7,130.3l-44,25.7l52.9-0.6C416.3,147.4,413,138,409.7,130.3"/>
	<path class="st0" d="M404.2,307.9c-3.1,6.2-6.8,12.8-10.4,18.5c-14.6-8.4-29.2-16.7-43.8-25.1c3.7-5.7,7.1-11.8,10.1-18
		C374.8,291.5,389.5,299.7,404.2,307.9"/>
	<path class="st2" d="M408.9,297.8c-14.4-8.3-28.8-16.6-43.2-24.8c17.4,0,34.8,0,52.2-0.1C415.6,280.9,412.2,290.3,408.9,297.8"/>
	<path class="st0" d="M522.5,87c5.5,0,10.1,1.8,13.6,5.3c3.6,3.6,5.3,8.1,5.3,13.6c0,5.4-1.8,9.9-5.3,13.4
		c-3.6,3.6-8.1,5.4-13.6,5.4c-5.5,0-10.1-1.8-13.6-5.4c-3.6-3.6-5.4-8-5.4-13.4c0-5.5,1.8-10.1,5.4-13.6C512.5,88.8,517,87,522.5,87
		 M504.6,137h35.7v109h-35.7V137z"/>
	<path class="st3" d="M635.2,102.3c11,0,21.2,1.8,30.4,5.5c9.2,3.6,17.3,8.8,24.2,15.3c6.9,6.6,12.3,14.3,16.1,23.1
		c3.8,8.8,5.8,18.4,5.8,28.8c0,10.5-1.9,20.2-5.8,29.2c-3.8,9-9.2,16.8-16.1,23.4c-6.9,6.7-15,11.8-24.2,15.5
		c-9.2,3.7-19.3,5.6-30.4,5.6c-10.9,0-21-1.9-30.3-5.6c-9.3-3.7-17.4-8.9-24.3-15.5c-6.9-6.7-12.3-14.5-16.2-23.4
		c-3.8-8.9-5.8-18.7-5.8-29.2c0-10.4,1.9-20,5.8-28.9c3.8-8.9,9.2-16.6,16.2-23.1c6.9-6.5,15-11.6,24.3-15.2
		C614.2,104.1,624.3,102.3,635.2,102.3 M635.6,133.2c-5.2,0-10.3,1-15,3.1c-4.8,2.1-9,5-12.5,8.9c-3.6,3.8-6.4,8.3-8.4,13.3
		c-2,5-3,10.6-3,16.7c0,5.9,1,11.5,3,16.7c2,5.2,4.8,9.7,8.5,13.5c3.6,3.8,7.8,6.8,12.5,9c4.7,2.2,9.7,3.2,14.9,3.2
		c5.2,0,10.2-1.1,14.8-3.2c4.6-2.2,8.7-5.1,12.2-9c3.5-3.8,6.2-8.3,8.2-13.5c2-5.2,2.9-10.7,2.9-16.7c0-6.1-1-11.6-2.9-16.7
		c-2-5-4.7-9.5-8.2-13.3c-3.5-3.8-7.6-6.8-12.2-8.9C645.8,134.2,640.8,133.2,635.6,133.2"/>
	<path class="st3" d="M792.2,104.5c18,0,32,4.3,42,13c10,8.7,14.9,20.9,14.9,36.6c0,16.6-5,29.4-14.9,38.7c-10,9.2-24,13.8-42,13.8
		h-41.4l16.2-16.1v55.5h-36.9V104.5H792.2z M790.4,177.6c7.5,0,13.4-1.9,17.5-5.7c4.1-3.8,6.2-9.4,6.2-16.8c0-7.1-2.1-12.5-6.2-16.2
		c-4.1-3.6-9.9-5.5-17.5-5.5h-39.6l16.2-16.2v76.3l-16.2-16.2H790.4z"/>
	<polygon class="st3" points="867.3,104.5 979,104.5 979,133.6 904.3,133.6 904.3,160.7 971.7,160.7 971.7,189.5 904.3,189.5 
		904.3,217 981,217 981,246.1 867.3,246.1 	"/>
	<polygon class="st3" points="1009.2,104.7 1041.7,104.7 1115.8,203.7 1106.1,206.9 1106.1,104.7 1140.2,104.7 1140.2,246.3 
		1107.9,246.3 1033.8,147.7 1043.7,144.5 1043.7,246.3 1009.2,246.3 	"/>
	<polygon class="st3" points="1167.9,104.7 1279.5,104.7 1279.5,133.8 1204.8,133.8 1204.8,160.9 1272.2,160.9 1272.2,189.7 
		1204.8,189.7 1204.8,217.2 1281.5,217.2 1281.5,246.3 1167.9,246.3 	"/>
	<path class="st3" d="M1367.7,104.7c18.8,0,33.4,4.3,43.6,13c10.2,8.7,15.3,20.9,15.3,36.6c0,16.6-5.1,29.4-15.3,38.7
		c-10.2,9.2-24.8,13.8-43.6,13.8h-26.7v39.4h-36.9V104.7H1367.7z M1367.7,177.8c7.5,0,13.4-1.9,17.6-5.7c4.2-3.8,6.3-9.4,6.3-16.8
		c0-7.1-2.1-12.5-6.3-16.1c-4.2-3.6-10-5.5-17.6-5.5h-26.7v44H1367.7z M1361.3,193.4h35.9l33.7,52.9h-41.8L1361.3,193.4z"/>
	<rect x="506.7" y="293.5" class="st4" width="7.9" height="35.2"/>
	<path class="st4" d="M548,281.2c3.5,0,6.8,0.6,9.8,1.8s5.7,2.9,7.9,5.1c2.3,2.2,4,4.7,5.3,7.6c1.3,2.9,1.9,6,1.9,9.4
		c0,3.4-0.6,6.5-1.9,9.4c-1.3,2.9-3,5.5-5.3,7.7c-2.3,2.2-4.9,3.9-7.9,5.1c-3,1.2-6.3,1.8-9.8,1.8c-3.5,0-6.8-0.6-9.8-1.8
		c-3-1.2-5.7-2.9-7.9-5.1s-4-4.8-5.3-7.7c-1.3-2.9-1.9-6.1-1.9-9.4c0-3.4,0.6-6.5,1.9-9.4c1.3-2.9,3-5.5,5.3-7.6
		c2.3-2.2,4.9-3.9,7.9-5.1S544.5,281.2,548,281.2 M548.1,287.9c-2.3,0-4.5,0.4-6.6,1.3c-2,0.9-3.8,2.1-5.4,3.7
		c-1.6,1.6-2.8,3.4-3.7,5.5c-0.9,2.1-1.3,4.3-1.3,6.8c0,2.4,0.4,4.7,1.3,6.8c0.9,2.1,2.1,4,3.7,5.5c1.6,1.6,3.4,2.8,5.4,3.7
		c2,0.9,4.2,1.3,6.5,1.3c2.3,0,4.4-0.4,6.5-1.3c2-0.9,3.8-2.1,5.3-3.7c1.5-1.6,2.7-3.4,3.6-5.5c0.9-2.1,1.3-4.4,1.3-6.8
		c0-2.4-0.4-4.7-1.3-6.8c-0.9-2.1-2.1-3.9-3.6-5.5s-3.3-2.8-5.3-3.7C552.5,288.4,550.4,287.9,548.1,287.9"/>
	<path class="st4" d="M600.2,281.7c5.9,0,10.5,1.4,13.8,4.2c3.3,2.8,4.9,6.7,4.9,11.8c0,5.3-1.6,9.4-4.9,12.3
		c-3.3,2.9-7.8,4.4-13.8,4.4h-14.3l3.5-3.5v17.8h-7.9v-47.1H600.2z M599.9,307.6c3.6,0,6.4-0.8,8.4-2.4c2-1.6,3-4,3-7.4
		c0-3.2-1-5.5-3-7.1c-2-1.5-4.8-2.3-8.4-2.3h-14l3.5-3.5v26.2l-3.5-3.5H599.9z"/>
	<polygon class="st4" points="626.7,281.7 660.3,281.7 660.3,288.5 634.6,288.5 634.6,301.7 657.6,301.7 657.6,308.4 634.6,308.4 
		634.6,322 661.1,322 661.1,328.7 626.7,328.7 	"/>
	<polygon class="st4" points="670.8,281.7 678.6,281.7 705.9,319 703.8,319.7 703.8,281.7 711.6,281.7 711.6,328.7 703.8,328.7 
		676.7,291.5 678.8,290.8 678.8,328.7 670.8,328.7 	"/>
	<polygon class="st4" points="724.1,281.7 757.7,281.7 757.7,288.5 732,288.5 732,301.7 755,301.7 755,308.4 732,308.4 732,322 
		758.5,322 758.5,328.7 724.1,328.7 	"/>
	<path class="st4" d="M787.3,281.7c6.1,0,10.7,1.4,14,4.2c3.3,2.8,4.9,6.7,4.9,11.8c0,5.3-1.6,9.4-4.9,12.3c-3.3,2.9-8,4.4-14,4.4
		h-11.2v14.3h-7.9v-47.1H787.3z M787.3,307.6c3.6,0,6.4-0.8,8.4-2.4c2-1.6,3-4,3-7.4c0-3.2-1-5.5-3-7.1c-2-1.5-4.8-2.3-8.4-2.3
		h-11.2v19.2H787.3z M787.6,311.3h7.8l11.7,17.4h-9L787.6,311.3z"/>
	<polygon class="st3" points="502.6,281.9 560.9,281.9 560.9,292.4 537.8,292.4 537.8,354.6 525.6,354.6 525.6,292.4 502.6,292.4 	
		"/>
	<path class="st3" d="M600.8,281.9c9.3,0,16.6,2.2,21.7,6.5c5.1,4.3,7.6,10.4,7.6,18.2c0,8.2-2.5,14.5-7.6,19.1
		c-5.1,4.5-12.3,6.8-21.7,6.8h-17.2v22.1h-12.3v-72.7H600.8z M600.8,322c5.6,0,10-1.2,13-3.7c3.1-2.5,4.6-6.2,4.6-11.4
		c0-4.9-1.5-8.6-4.6-11c-3.1-2.4-7.4-3.6-13-3.6h-17.2V322H600.8z M601.3,327.7h12l18.1,26.9h-13.9L601.3,327.7z"/>
	<path class="st3" d="M669.1,281.9h12.6l31.8,72.7h-13.1L675,294.3l-25.2,60.3H637L669.1,281.9z M653,327.4h43.5v10.4H653V327.4z"/>
	<rect x="723.1" y="281.9" class="st3" width="12.3" height="72.7"/>
	<polygon class="st3" points="754.4,281.9 766.5,281.9 808.6,339.6 805.4,340.6 805.4,281.9 817.5,281.9 817.5,354.6 805.4,354.6 
		763.5,297.1 766.7,296.1 766.7,354.6 754.4,354.6 	"/>
	<rect x="836.7" y="281.9" class="st3" width="12.3" height="72.7"/>
	<polygon class="st3" points="868.1,281.9 880.1,281.9 922.2,339.6 919.1,340.6 919.1,281.9 931.1,281.9 931.1,354.6 919.1,354.6 
		877.1,297.1 880.3,296.1 880.3,354.6 868.1,354.6 	"/>
	<path class="st3" d="M1004.2,299.9c-2.8-2.6-6-4.7-9.7-6.2c-3.7-1.5-7.5-2.2-11.3-2.2c-3.7,0-7.2,0.7-10.4,2.1
		c-3.2,1.4-6,3.3-8.4,5.7c-2.4,2.4-4.3,5.2-5.7,8.5c-1.3,3.2-2,6.7-2,10.4c0,3.7,0.7,7.2,2,10.5c1.3,3.3,3.2,6.1,5.7,8.6
		c2.4,2.5,5.2,4.4,8.5,5.8c3.2,1.4,6.7,2.1,10.4,2.1c3.4,0,6.9-0.7,10.5-2.1c3.6-1.4,6.9-3.3,9.8-5.6l7.1,8.5
		c-2.4,1.9-5.2,3.5-8.4,5c-3.2,1.5-6.4,2.6-9.8,3.4c-3.4,0.8-6.7,1.2-10.1,1.2c-5.4,0-10.4-1-15-2.9c-4.6-1.9-8.7-4.6-12.2-7.9
		c-3.5-3.4-6.2-7.4-8.2-11.9c-1.9-4.5-2.9-9.4-2.9-14.6c0-5.2,1-10,3-14.5c2-4.5,4.7-8.4,8.3-11.8c3.5-3.4,7.7-6,12.4-7.9
		c4.7-1.9,9.8-2.8,15.3-2.8c3.5,0,6.9,0.4,10.2,1.2c3.4,0.8,6.6,2,9.6,3.5c3,1.5,5.7,3.4,8.1,5.5L1004.2,299.9z M1000.1,319.1h10.7
		v26.8h-10.7V319.1z"/>
	<path class="st3" d="M1110,299.9c-2.8-2.6-6-4.7-9.7-6.2c-3.7-1.5-7.5-2.2-11.3-2.2c-3.7,0-7.2,0.7-10.4,2.1
		c-3.2,1.4-6,3.3-8.4,5.7c-2.4,2.4-4.3,5.2-5.7,8.5c-1.4,3.2-2,6.7-2,10.4c0,3.7,0.7,7.2,2,10.5c1.3,3.3,3.2,6.1,5.7,8.6
		c2.4,2.5,5.2,4.4,8.5,5.8c3.2,1.4,6.7,2.1,10.4,2.1c3.4,0,6.9-0.7,10.5-2.1c3.6-1.4,6.9-3.3,9.8-5.6l7.1,8.5
		c-2.4,1.9-5.2,3.5-8.4,5c-3.2,1.5-6.4,2.6-9.8,3.4c-3.4,0.8-6.8,1.2-10.1,1.2c-5.4,0-10.4-1-15-2.9c-4.6-1.9-8.7-4.6-12.2-7.9
		c-3.5-3.4-6.2-7.4-8.2-11.9c-1.9-4.5-2.9-9.4-2.9-14.6c0-5.2,1-10,3-14.5c2-4.5,4.7-8.4,8.3-11.8c3.5-3.4,7.7-6,12.4-7.9
		c4.7-1.9,9.9-2.8,15.3-2.8c3.5,0,6.9,0.4,10.2,1.2c3.4,0.8,6.6,2,9.6,3.5c3,1.5,5.7,3.4,8.1,5.5L1110,299.9z M1105.9,319.1h10.7
		v26.8h-10.7V319.1z"/>
	<path class="st3" d="M1163.4,281.9c9.3,0,16.6,2.2,21.7,6.5c5.1,4.3,7.6,10.4,7.6,18.2c0,8.2-2.5,14.5-7.6,19.1
		c-5.1,4.5-12.3,6.8-21.7,6.8h-17.2v22.1h-12.3v-72.7H1163.4z M1163.4,322c5.6,0,10-1.2,13-3.7c3.1-2.5,4.6-6.2,4.6-11.4
		c0-4.9-1.5-8.6-4.6-11c-3.1-2.4-7.4-3.6-13-3.6h-17.2V322H1163.4z M1163.8,327.7h12l18.1,26.9H1180L1163.8,327.7z"/>
	<path class="st3" d="M1241.5,281.2c5.4,0,10.4,0.9,15.1,2.8c4.7,1.9,8.8,4.5,12.3,7.9c3.5,3.4,6.2,7.3,8.2,11.8c2,4.5,3,9.3,3,14.5
		c0,5.2-1,10.1-3,14.6c-2,4.5-4.7,8.5-8.2,11.9c-3.5,3.4-7.6,6-12.3,7.9c-4.7,1.9-9.7,2.9-15.1,2.9c-5.4,0-10.4-1-15.1-2.9
		c-4.7-1.9-8.8-4.6-12.3-7.9c-3.5-3.4-6.2-7.4-8.2-11.9c-2-4.5-3-9.4-3-14.6c0-5.2,1-10,3-14.5c2-4.5,4.7-8.4,8.2-11.8
		c3.5-3.4,7.6-6,12.3-7.8C1231.1,282.1,1236.1,281.2,1241.5,281.2 M1241.6,291.6c-3.6,0-7,0.7-10.1,2c-3.2,1.3-5.9,3.2-8.4,5.7
		c-2.4,2.4-4.3,5.2-5.7,8.5c-1.3,3.2-2,6.7-2,10.4c0,3.7,0.7,7.2,2.1,10.5c1.4,3.3,3.3,6.1,5.7,8.6c2.4,2.5,5.2,4.4,8.4,5.8
		c3.2,1.4,6.5,2.1,10,2.1c3.5,0,6.9-0.7,10-2.1c3.2-1.4,5.9-3.3,8.3-5.8c2.4-2.5,4.2-5.3,5.6-8.6c1.3-3.3,2-6.8,2-10.5
		c0-3.7-0.7-7.2-2-10.4c-1.3-3.2-3.2-6-5.6-8.5c-2.4-2.4-5.1-4.3-8.3-5.7C1248.5,292.3,1245.2,291.6,1241.6,291.6"/>
	<path class="st3" d="M1303.9,324.8c0,6.3,1.7,11.3,5.2,14.9c3.5,3.6,8.1,5.4,14,5.4c5.8,0,10.4-1.8,13.8-5.3
		c3.4-3.6,5.1-8.5,5.1-14.9v-42.9h12.3v42.9c0,6.3-1.2,11.8-3.7,16.4c-2.5,4.6-6.1,8.1-10.8,10.6c-4.7,2.5-10.2,3.7-16.7,3.7
		c-6.5,0-12.1-1.2-16.8-3.7c-4.7-2.5-8.3-6-10.9-10.6c-2.5-4.6-3.8-10.1-3.8-16.4v-42.9h12.3V324.8z"/>
	<path class="st3" d="M1400.9,281.9c9.1,0,16.2,2.2,21.2,6.5c5,4.3,7.5,10.4,7.5,18.2c0,8.2-2.5,14.5-7.5,19.1
		c-5,4.5-12.1,6.8-21.2,6.8h-22.1l5.4-5.4v27.5H1372v-72.7H1400.9z M1400.4,322c5.6,0,9.9-1.2,13-3.7c3-2.5,4.6-6.2,4.6-11.4
		c0-4.9-1.5-8.6-4.6-11c-3-2.4-7.4-3.6-13-3.6h-21.6l5.4-5.4v40.4l-5.4-5.4H1400.4z"/>
	<polygon class="st5" points="505.4,328.5 530.5,328.5 530.5,333.9 511.7,333.9 511.7,345 528.7,345 528.7,350.4 511.7,350.4 
		511.7,365.9 505.4,365.9 	"/>
	<path class="st5" d="M562,328.5c4.8,0,8.5,1.1,11.2,3.3c2.6,2.2,3.9,5.4,3.9,9.4c0,4.2-1.3,7.5-3.9,9.8c-2.6,2.3-6.3,3.5-11.2,3.5
		h-8.9v11.4h-6.3v-37.4H562z M562,349.1c2.9,0,5.1-0.6,6.7-1.9c1.6-1.3,2.4-3.2,2.4-5.9c0-2.5-0.8-4.4-2.4-5.6
		c-1.6-1.2-3.8-1.8-6.7-1.8h-8.9v15.2H562z M562.2,352.1h6.2l9.3,13.9h-7.2L562.2,352.1z"/>
	<path class="st5" d="M612.9,328.1c2.8,0,5.4,0.5,7.8,1.4c2.4,1,4.5,2.3,6.3,4.1c1.8,1.7,3.2,3.8,4.2,6.1c1,2.3,1.5,4.8,1.5,7.5
		c0,2.7-0.5,5.2-1.5,7.5c-1,2.3-2.4,4.4-4.2,6.1c-1.8,1.7-3.9,3.1-6.3,4.1c-2.4,1-5,1.5-7.8,1.5s-5.4-0.5-7.8-1.5
		c-2.4-1-4.5-2.3-6.3-4.1c-1.8-1.7-3.2-3.8-4.2-6.1c-1-2.3-1.5-4.8-1.5-7.5c0-2.7,0.5-5.2,1.5-7.5c1-2.3,2.4-4.3,4.2-6.1
		s3.9-3.1,6.3-4C607.6,328.6,610.2,328.1,612.9,328.1 M613,333.5c-1.9,0-3.6,0.3-5.2,1s-3.1,1.7-4.3,2.9c-1.2,1.2-2.2,2.7-2.9,4.4
		c-0.7,1.7-1,3.5-1,5.4c0,1.9,0.4,3.7,1.1,5.4c0.7,1.7,1.7,3.1,2.9,4.4c1.2,1.3,2.7,2.3,4.3,3c1.6,0.7,3.3,1.1,5.2,1.1
		c1.8,0,3.5-0.4,5.2-1.1c1.6-0.7,3-1.7,4.3-3c1.2-1.3,2.2-2.7,2.9-4.4c0.7-1.7,1-3.5,1-5.4c0-1.9-0.3-3.7-1-5.4
		c-0.7-1.7-1.6-3.1-2.9-4.4c-1.2-1.2-2.6-2.2-4.3-2.9C616.5,333.8,614.8,333.5,613,333.5"/>
	<polygon class="st5" points="650.2,328.5 657.5,328.5 670.5,353.9 683.3,328.5 690.6,328.5 690.6,365.9 684.8,365.9 684.8,337.3 
		672.5,362 668.4,362 656,337.3 656,365.9 650.2,365.9 	"/>
	<rect x="736.3" y="328.5" class="st5" width="6.3" height="37.4"/>
	<polygon class="st5" points="763.1,328.5 769.3,328.5 791,358.2 789.4,358.7 789.4,328.5 795.6,328.5 795.6,365.9 789.4,365.9 
		767.8,336.3 769.5,335.8 769.5,365.9 763.1,365.9 	"/>
	<path class="st5" d="M839,337.1c-1.4-0.9-2.7-1.5-4-2c-1.3-0.5-2.6-0.9-3.7-1.1c-1.2-0.2-2.2-0.3-3.2-0.3c-1.9,0-3.3,0.4-4.4,1.1
		c-1.1,0.7-1.7,1.7-1.7,3.1c0,1.2,0.4,2.2,1.1,3c0.7,0.8,1.7,1.4,2.9,1.9c1.2,0.5,2.5,0.9,4,1.4c1.4,0.4,2.9,0.9,4.3,1.4
		c1.4,0.5,2.7,1.2,4,2c1.2,0.8,2.2,1.9,2.9,3.1c0.7,1.3,1.1,2.9,1.1,4.8c0,2.2-0.6,4.1-1.8,5.7c-1.2,1.6-2.9,2.9-5,3.8
		c-2.1,0.9-4.6,1.3-7.3,1.3c-2,0-3.9-0.3-5.7-0.8c-1.9-0.5-3.6-1.2-5.2-2.1s-3.1-1.9-4.4-3.1l2.7-5.2c1.3,1.2,2.6,2.2,4.1,3
		c1.4,0.8,2.9,1.4,4.4,1.9c1.5,0.4,2.9,0.6,4.2,0.6c2.2,0,3.9-0.4,5.2-1.3c1.2-0.9,1.8-2,1.8-3.6c0-1.2-0.4-2.3-1.1-3
		c-0.7-0.8-1.7-1.4-2.9-1.9c-1.2-0.5-2.5-0.9-4-1.3c-1.4-0.4-2.9-0.8-4.3-1.4c-1.4-0.5-2.8-1.2-4-2c-1.2-0.8-2.2-1.8-2.9-3
		c-0.7-1.2-1.1-2.8-1.1-4.8c0-2.1,0.6-3.9,1.7-5.5c1.1-1.6,2.7-2.8,4.8-3.6c2-0.9,4.4-1.3,7.1-1.3c2.4,0,4.8,0.4,7.1,1.1
		c2.3,0.7,4.3,1.6,6,2.8L839,337.1z"/>
	<rect x="860.1" y="328.5" class="st5" width="6.3" height="37.4"/>
	<path class="st5" d="M914.7,337.7c-1.4-1.4-3.1-2.4-5-3.2c-1.9-0.8-3.8-1.2-5.8-1.2c-1.9,0-3.7,0.4-5.3,1.1
		c-1.6,0.7-3.1,1.7-4.3,2.9c-1.2,1.2-2.2,2.7-2.9,4.4s-1,3.4-1,5.4c0,1.9,0.3,3.7,1,5.4s1.7,3.1,2.9,4.4c1.2,1.3,2.7,2.3,4.4,3
		c1.7,0.7,3.4,1.1,5.4,1.1c1.7,0,3.6-0.4,5.4-1.1c1.9-0.7,3.6-1.7,5.1-2.9l3.6,4.4c-1.2,1-2.7,1.8-4.3,2.6c-1.6,0.7-3.3,1.3-5.1,1.7
		c-1.7,0.4-3.5,0.6-5.2,0.6c-2.8,0-5.4-0.5-7.7-1.5c-2.4-1-4.5-2.3-6.3-4.1c-1.8-1.7-3.2-3.8-4.2-6.1c-1-2.3-1.5-4.8-1.5-7.5
		c0-2.7,0.5-5.2,1.5-7.5c1-2.3,2.4-4.3,4.3-6.1s3.9-3.1,6.4-4.1c2.4-1,5.1-1.4,7.9-1.4c1.8,0,3.5,0.2,5.3,0.6c1.7,0.4,3.4,1,4.9,1.8
		c1.6,0.8,3,1.7,4.2,2.8L914.7,337.7z M912.6,347.6h5.5v13.8h-5.5V347.6z"/>
	<polygon class="st5" points="937.7,328.5 944,328.5 944,344.9 963.9,344.9 963.9,328.5 970.2,328.5 970.2,365.9 963.9,365.9 
		963.9,350.2 944,350.2 944,365.9 937.7,365.9 	"/>
	<polygon class="st5" points="986.3,328.5 1016.3,328.5 1016.3,333.9 1004.4,333.9 1004.4,365.9 998.1,365.9 998.1,333.9 
		986.3,333.9 	"/>
	<polygon class="st5" points="1053.1,328.5 1083.1,328.5 1083.1,333.9 1071.2,333.9 1071.2,365.9 1064.9,365.9 1064.9,333.9 
		1053.1,333.9 	"/>
	<path class="st5" d="M1113.7,328.1c2.8,0,5.4,0.5,7.8,1.4c2.4,1,4.5,2.3,6.3,4.1c1.8,1.7,3.2,3.8,4.2,6.1c1,2.3,1.5,4.8,1.5,7.5
		c0,2.7-0.5,5.2-1.5,7.5c-1,2.3-2.4,4.4-4.2,6.1c-1.8,1.7-3.9,3.1-6.3,4.1c-2.4,1-5,1.5-7.8,1.5c-2.8,0-5.4-0.5-7.8-1.5
		c-2.4-1-4.5-2.3-6.3-4.1c-1.8-1.7-3.2-3.8-4.2-6.1c-1-2.3-1.5-4.8-1.5-7.5c0-2.7,0.5-5.2,1.5-7.5c1-2.3,2.4-4.3,4.2-6.1
		c1.8-1.7,3.9-3.1,6.3-4C1108.3,328.6,1110.9,328.1,1113.7,328.1 M1113.7,333.5c-1.9,0-3.6,0.3-5.2,1c-1.6,0.7-3.1,1.7-4.3,2.9
		c-1.2,1.2-2.2,2.7-2.9,4.4c-0.7,1.7-1,3.5-1,5.4c0,1.9,0.4,3.7,1.1,5.4c0.7,1.7,1.7,3.1,2.9,4.4c1.2,1.3,2.7,2.3,4.3,3
		c1.6,0.7,3.3,1.1,5.2,1.1c1.8,0,3.5-0.4,5.2-1.1c1.6-0.7,3-1.7,4.3-3c1.2-1.3,2.2-2.7,2.9-4.4c0.7-1.7,1-3.5,1-5.4
		c0-1.9-0.3-3.7-1-5.4c-0.7-1.7-1.6-3.1-2.9-4.4c-1.2-1.2-2.6-2.2-4.3-2.9C1117.3,333.8,1115.5,333.5,1113.7,333.5"/>
	<rect x="1176.1" y="328.5" class="st5" width="6.3" height="37.4"/>
	<polygon class="st5" points="1202.9,328.5 1210.2,328.5 1223.2,353.9 1236,328.5 1243.3,328.5 1243.3,365.9 1237.5,365.9 
		1237.5,337.3 1225.2,362 1221.2,362 1208.7,337.3 1208.7,365.9 1202.9,365.9 	"/>
	<path class="st5" d="M1278.8,328.5c4.7,0,8.3,1.1,10.9,3.3c2.6,2.2,3.9,5.4,3.9,9.4c0,4.2-1.3,7.5-3.9,9.8
		c-2.6,2.3-6.2,3.5-10.9,3.5h-11.4l2.8-2.8v14.2h-6.3v-37.4H1278.8z M1278.5,349.1c2.9,0,5.1-0.6,6.7-1.9c1.6-1.3,2.4-3.2,2.4-5.9
		c0-2.5-0.8-4.4-2.4-5.6c-1.6-1.2-3.8-1.8-6.7-1.8h-11.1l2.8-2.8v20.8l-2.8-2.8H1278.5z"/>
	<path class="st5" d="M1319.9,328.5h6.5l16.4,37.4h-6.7l-13-31.1l-13,31.1h-6.6L1319.9,328.5z M1311.6,351.9h22.4v5.3h-22.4V351.9z"
		/>
	<path class="st5" d="M1384.5,338.2c-1.4-1.5-3-2.7-4.8-3.5c-1.9-0.9-3.7-1.3-5.6-1.3c-1.9,0-3.6,0.3-5.2,1c-1.6,0.7-3,1.7-4.3,2.9
		c-1.2,1.2-2.2,2.7-2.9,4.4c-0.7,1.7-1,3.4-1,5.4c0,1.9,0.3,3.7,1,5.3c0.7,1.7,1.6,3.1,2.9,4.4c1.2,1.2,2.7,2.2,4.3,2.9
		c1.6,0.7,3.4,1.1,5.2,1.1c1.9,0,3.7-0.4,5.6-1.2s3.4-1.9,4.9-3.3l3.7,3.9c-1.2,1.2-2.7,2.3-4.3,3.3c-1.6,0.9-3.2,1.6-5,2.1
		c-1.7,0.5-3.5,0.7-5.3,0.7c-2.7,0-5.3-0.5-7.6-1.5c-2.4-1-4.4-2.3-6.2-4.1c-1.8-1.7-3.1-3.8-4.1-6.1c-1-2.3-1.5-4.8-1.5-7.5
		c0-2.7,0.5-5.2,1.5-7.5c1-2.3,2.4-4.3,4.2-6.1c1.8-1.7,3.9-3.1,6.3-4.1c2.4-1,4.9-1.4,7.7-1.4c1.8,0,3.5,0.2,5.2,0.7
		c1.7,0.5,3.3,1.1,4.9,2c1.5,0.9,2.9,1.9,4.1,3.1L1384.5,338.2z"/>
	<polygon class="st5" points="1400.9,328.5 1430.9,328.5 1430.9,333.9 1419.1,333.9 1419.1,365.9 1412.7,365.9 1412.7,333.9 
		1400.9,333.9 	"/>
	<path class="st4" d="M515.7,284.7c0,2.8-2.3,5.1-5.1,5.1c-2.8,0-5.1-2.3-5.1-5.1c0-2.8,2.3-5.1,5.1-5.1
		C513.5,279.6,515.7,281.9,515.7,284.7"/>
</g>
</svg>
