<svg xmlns="http://www.w3.org/2000/svg" viewBox="0 0 1439.39 426.31"><defs><style>.cls-1{fill:#fff;}</style></defs><g id="Layer_2" data-name="Layer 2"><g id="Layer_1-2" data-name="Layer 1"><path class="cls-1" d="M531,67.2a18.31,18.31,0,0,1,19,19,18.22,18.22,0,0,1-5.35,13.42,20,20,0,0,1-27.25,0A18.18,18.18,0,0,1,512,86.18a18.31,18.31,0,0,1,19-19Zm-18,50.07h35.73v109H513Z"/><path class="cls-1" d="M643.63,82.54A82.26,82.26,0,0,1,674,88a74.35,74.35,0,0,1,24.22,15.35,70.21,70.21,0,0,1,16.15,23.11,71.29,71.29,0,0,1,5.76,28.77,73.18,73.18,0,0,1-5.76,29.17,70.75,70.75,0,0,1-16.15,23.42A74.87,74.87,0,0,1,674,223.36a85.68,85.68,0,0,1-60.67,0A74.51,74.51,0,0,1,589,207.81a70.9,70.9,0,0,1-16.15-23.42,73.35,73.35,0,0,1-5.75-29.17,72.14,72.14,0,0,1,5.75-28.87A68.93,68.93,0,0,1,589,103.24,74.92,74.92,0,0,1,613.35,88,82.47,82.47,0,0,1,643.63,82.54Zm.41,30.89a37.56,37.56,0,0,0-27.56,12,42.61,42.61,0,0,0-8.38,13.33,44.4,44.4,0,0,0-3,16.65,45.44,45.44,0,0,0,3,16.66,41.18,41.18,0,0,0,8.48,13.52,39.8,39.8,0,0,0,12.52,9A35.57,35.57,0,0,0,644,197.82a34.87,34.87,0,0,0,14.83-3.23,37.94,37.94,0,0,0,12.22-9,41.45,41.45,0,0,0,8.17-13.52,46.89,46.89,0,0,0,2.93-16.66,45.82,45.82,0,0,0-2.93-16.65,42.06,42.06,0,0,0-8.17-13.33,36.89,36.89,0,0,0-12.22-8.88A35.71,35.71,0,0,0,644,113.43Z"/><path class="cls-1" d="M800.7,84.76q27,0,42,13t14.94,36.65q0,24.82-14.94,38.66t-42,13.83H759.31l16.15-16.15v55.51H738.52V84.76Zm-1.82,73.09q11.29,0,17.46-5.66t6.16-16.75q0-10.71-6.16-16.15t-17.46-5.46H759.31l16.15-16.15V174l-16.15-16.15Z"/><path class="cls-1" d="M875.79,84.76H987.44v29.07h-74.7v27.06h67.43v28.87H912.74v27.45h76.71v29.07H875.79Z"/><path class="cls-1" d="M1017.66,85h32.5l74.09,98.93-9.69,3.23V85h34.12V226.48h-32.3L1042.29,128l9.89-3.24V226.48h-34.52Z"/><path class="cls-1" d="M1176.34,85H1288V114h-74.7v27.05h67.43V170h-67.43v27.45H1290v29.07H1176.34Z"/><path class="cls-1" d="M1376.2,85q28.26,0,43.61,13t15.34,36.64q0,24.83-15.34,38.66t-43.61,13.83h-26.65v39.36h-36.94V85Zm0,73.09q11.31,0,17.57-5.66t6.25-16.75q0-10.71-6.25-16.15T1376.2,114h-26.65v44Zm-6.46,15.54h35.94l33.71,52.89H1397.6Z"/><path class="cls-1" d="M515.13,273.76h7.94V309h-7.94Z"/><path class="cls-1" d="M556.49,261.43a26.09,26.09,0,0,1,9.78,1.81A24.18,24.18,0,0,1,579.52,276a22.91,22.91,0,0,1,1.92,9.38,23.41,23.41,0,0,1-1.92,9.45,24.11,24.11,0,0,1-5.31,7.7,24.69,24.69,0,0,1-7.94,5.14,26.8,26.8,0,0,1-19.57,0,24.65,24.65,0,0,1-7.93-5.14,24,24,0,0,1-5.32-7.7,23.63,23.63,0,0,1,5.32-26.5,24.49,24.49,0,0,1,7.93-5.08A26.14,26.14,0,0,1,556.49,261.43Zm.06,6.72a16.51,16.51,0,0,0-6.55,1.31,17.26,17.26,0,0,0-5.42,3.67,16.89,16.89,0,0,0-3.66,5.48,18,18,0,0,0,0,13.55,17.69,17.69,0,0,0,3.7,5.55,17.4,17.4,0,0,0,5.41,3.73,16.28,16.28,0,0,0,13,0,16.69,16.69,0,0,0,5.35-3.73,17.94,17.94,0,0,0,3.6-5.55,17.63,17.63,0,0,0,1.31-6.79,17.4,17.4,0,0,0-1.31-6.76,17.74,17.74,0,0,0-3.6-5.48,16.41,16.41,0,0,0-11.84-5Z"/><path class="cls-1" d="M608.67,261.9q8.88,0,13.75,4.2t4.88,11.8q0,7.94-4.88,12.34t-13.75,4.41H594.35l3.49-3.5V309h-7.93V261.9Zm-.34,26q5.46,0,8.41-2.39c2-1.59,3-4.05,3-7.36s-1-5.55-3-7.1-4.77-2.32-8.41-2.32h-14l3.49-3.5v26.16l-3.49-3.49Z"/><path class="cls-1" d="M635.17,261.9h33.62v6.79H643.1v13.25h23v6.72h-23v13.52h26.5V309H635.17Z"/><path class="cls-1" d="M679.28,261.9h7.8l27.24,37.32-2,.67v-38h7.8V309h-7.8l-27.17-37.25,2.09-.68V309h-7.94Z"/><path class="cls-1" d="M732.54,261.9h33.62v6.79H740.48v13.25h23v6.72h-23v13.52H767V309H732.54Z"/><path class="cls-1" d="M795.75,261.9q9.09,0,14,4.2t5,11.8q0,7.94-5,12.34t-14,4.41H784.59V309h-7.94V261.9Zm0,26q5.46,0,8.44-2.39c2-1.59,3-4.05,3-7.36s-1-5.55-3-7.1-4.8-2.32-8.44-2.32H784.59v19.17Zm.27,3.7h7.8L815.52,309h-9Z"/><path class="cls-1" d="M837.85,261.9h37.72v6.79H860.65V309h-7.94V268.69H837.85Z"/><path class="cls-1" d="M901.47,261.9q9.07,0,14,4.2t4.94,11.8q0,7.94-4.94,12.34t-14,4.41H890.3V309h-7.93V261.9Zm0,26q5.44,0,8.43-2.39c2-1.59,3-4.05,3-7.36s-1-5.55-3-7.1-4.8-2.32-8.43-2.32H890.3v19.17Zm.26,3.7h7.81L921.24,309h-9Z"/><path class="cls-1" d="M945.65,261.9h8.13L974.36,309h-8.47L949.48,269.9,933.14,309h-8.27Zm-10.43,29.45H963.4v6.73H935.22Z"/><path class="cls-1" d="M980.62,261.9h7.93V309h-7.93Z"/><path class="cls-1" d="M1000.92,261.9h7.8L1036,299.22l-2,.67v-38h7.8V309h-7.8l-27.16-37.25,2.08-.68V309h-7.94Z"/><path class="cls-1" d="M1054.18,261.9h7.94V309h-7.94Z"/><path class="cls-1" d="M1074.49,261.9h7.8l27.24,37.32-2,.67v-38h7.8V309h-7.8l-27.17-37.25,2.09-.68V309h-7.94Z"/><path class="cls-1" d="M1162.65,273.53a19.87,19.87,0,0,0-6.28-4,19.53,19.53,0,0,0-7.3-1.44,16.6,16.6,0,0,0-6.72,1.34,17.48,17.48,0,0,0-5.45,3.7,17.08,17.08,0,0,0-3.67,5.48,17.4,17.4,0,0,0-1.31,6.76,17.63,17.63,0,0,0,1.31,6.79,17.18,17.18,0,0,0,9.15,9.28,16.86,16.86,0,0,0,6.76,1.35,19.05,19.05,0,0,0,6.82-1.35,23.31,23.31,0,0,0,6.36-3.63l4.57,5.51a28.05,28.05,0,0,1-5.41,3.23,33.66,33.66,0,0,1-6.36,2.19,28.79,28.79,0,0,1-6.52.77,25.23,25.23,0,0,1-9.72-1.85,24.93,24.93,0,0,1-7.87-5.14,23.71,23.71,0,0,1-7.16-17.15,22.91,22.91,0,0,1,1.92-9.38,23.91,23.91,0,0,1,5.34-7.63,24.38,24.38,0,0,1,8-5.12,26.82,26.82,0,0,1,9.92-1.81,27.33,27.33,0,0,1,6.62.81,29.66,29.66,0,0,1,6.22,2.28,22.9,22.9,0,0,1,5.25,3.57ZM1160,286h6.93v17.35H1160Z"/><path class="cls-1" d="M1231.18,273.53a19.92,19.92,0,0,0-6.29-4,19.49,19.49,0,0,0-7.3-1.44,16.6,16.6,0,0,0-6.72,1.34,17.59,17.59,0,0,0-5.45,3.7,16.89,16.89,0,0,0-3.66,5.48,17.22,17.22,0,0,0-1.31,6.76,17.44,17.44,0,0,0,1.31,6.79,17.12,17.12,0,0,0,9.14,9.28,16.9,16.9,0,0,0,6.76,1.35,19.1,19.1,0,0,0,6.83-1.35,23.26,23.26,0,0,0,6.35-3.63l4.58,5.51a28.14,28.14,0,0,1-5.42,3.23,33.81,33.81,0,0,1-6.35,2.19,28.81,28.81,0,0,1-6.53.77,25.22,25.22,0,0,1-9.71-1.85,24.71,24.71,0,0,1-7.87-5.14,23.4,23.4,0,0,1-5.28-7.7,23.73,23.73,0,0,1-1.88-9.45,23.07,23.07,0,0,1,1.91-9.38,23.79,23.79,0,0,1,5.35-7.63,24.34,24.34,0,0,1,8-5.12,26.86,26.86,0,0,1,9.92-1.81,27.41,27.41,0,0,1,6.63.81,29.87,29.87,0,0,1,6.22,2.28,23.05,23.05,0,0,1,5.24,3.57ZM1228.49,286h6.93v17.35h-6.93Z"/><path class="cls-1" d="M1265.74,261.9q9.09,0,14,4.2t4.94,11.8q0,7.94-4.94,12.34t-14,4.41h-11.16V309h-7.93V261.9Zm0,26q5.46,0,8.44-2.39c2-1.59,3-4.05,3-7.36s-1-5.55-3-7.1-4.8-2.32-8.44-2.32h-11.16v19.17Zm.27,3.7h7.8L1285.52,309h-9Z"/><path class="cls-1" d="M1316.31,261.43a26.14,26.14,0,0,1,9.79,1.81A24.27,24.27,0,0,1,1339.35,276a23.07,23.07,0,0,1,1.91,9.38,23.58,23.58,0,0,1-1.91,9.45,24,24,0,0,1-5.32,7.7,24.65,24.65,0,0,1-7.93,5.14,26.8,26.8,0,0,1-19.57,0,24.69,24.69,0,0,1-7.94-5.14,24.11,24.11,0,0,1-5.31-7.7,24.14,24.14,0,0,1,0-18.87,23.81,23.81,0,0,1,5.31-7.63,24.54,24.54,0,0,1,7.94-5.08A26.12,26.12,0,0,1,1316.31,261.43Zm.07,6.72a16.56,16.56,0,0,0-6.56,1.31,17.22,17.22,0,0,0-5.41,3.67,16.89,16.89,0,0,0-3.66,5.48,17.86,17.86,0,0,0,0,13.55,17.69,17.69,0,0,0,3.7,5.55,17.4,17.4,0,0,0,5.41,3.73,16.28,16.28,0,0,0,13,0,16.69,16.69,0,0,0,5.35-3.73,17.74,17.74,0,0,0,3.59-5.55,17.45,17.45,0,0,0,1.32-6.79,17.23,17.23,0,0,0-1.32-6.76,17.53,17.53,0,0,0-3.59-5.48,16.41,16.41,0,0,0-11.84-5Z"/><path class="cls-1" d="M1356.73,289.67q0,6.12,3.36,9.62a12,12,0,0,0,9.08,3.5,11.73,11.73,0,0,0,8.94-3.47q3.3-3.46,3.3-9.65V261.9h7.94v27.77a21.85,21.85,0,0,1-2.43,10.59,16.34,16.34,0,0,1-7,6.86,22.76,22.76,0,0,1-10.79,2.39,23.12,23.12,0,0,1-10.89-2.39,16.5,16.5,0,0,1-7-6.86,21.64,21.64,0,0,1-2.46-10.59V261.9h7.94Z"/><path class="cls-1" d="M1419.54,261.9q8.88,0,13.75,4.2t4.88,11.8q0,7.94-4.88,12.34t-13.75,4.41h-14.32l3.49-3.5V309h-7.93V261.9Zm-.34,26c3.63,0,6.44-.8,8.41-2.39s3-4.05,3-7.36-1-5.55-3-7.1-4.78-2.32-8.41-2.32h-14l3.49-3.5v26.16l-3.49-3.49Z"/><path class="cls-1" d="M513.86,335.71H539l-.06,5.4H520.17v11.12h17v5.35h-17v15.56h-6.31Z"/><path class="cls-1" d="M570.49,335.71q7.21,0,11.15,3.34t3.93,9.39c0,4.2-1.31,7.48-3.93,9.81s-6.34,3.5-11.15,3.5h-8.87v11.39h-6.31V335.71Zm0,20.64a10.47,10.47,0,0,0,6.71-1.9q2.38-1.89,2.38-5.85A6.68,6.68,0,0,0,577.2,343a10.71,10.71,0,0,0-6.71-1.85h-8.87v15.24Zm.22,2.94h6.2l9.3,13.85h-7.16Z"/><path class="cls-1" d="M621.4,335.34a20.82,20.82,0,0,1,7.78,1.44,19.14,19.14,0,0,1,10.53,10.13,18.2,18.2,0,0,1,1.53,7.46,18.59,18.59,0,0,1-1.53,7.52,19,19,0,0,1-4.22,6.12,19.46,19.46,0,0,1-6.31,4.09,21.32,21.32,0,0,1-15.56,0,19.46,19.46,0,0,1-6.31-4.09,19.17,19.17,0,0,1-4.23-6.12,18.75,18.75,0,0,1-1.52-7.52,18.49,18.49,0,0,1,1.52-7.48,18.85,18.85,0,0,1,4.23-6.07,19.33,19.33,0,0,1,6.31-4A20.82,20.82,0,0,1,621.4,335.34Zm.05,5.34a13,13,0,0,0-5.21,1.05,13.89,13.89,0,0,0-7.19,18,14,14,0,0,0,2.94,4.42,13.83,13.83,0,0,0,4.3,3,13,13,0,0,0,10.32,0,13.17,13.17,0,0,0,4.25-3,14.16,14.16,0,0,0,2.87-4.42,14,14,0,0,0,1-5.4,13.76,13.76,0,0,0-3.91-9.73,13.12,13.12,0,0,0-9.41-4Z"/><path class="cls-1" d="M658.67,335.71H666l12.94,25.4,12.83-25.4h7.33v37.43h-5.83l0-28.61-12.3,24.71h-4L664.5,344.53v28.61h-5.83Z"/><path class="cls-1" d="M744.76,335.71h6.31v37.43h-6.31Z"/><path class="cls-1" d="M771.61,335.71h6.2l21.66,29.68-1.61.53V335.71h6.21v37.43h-6.21l-21.6-29.62,1.66-.54v30.16h-6.31Z"/><path class="cls-1" d="M847.43,344.37a22.58,22.58,0,0,0-4-2,21.87,21.87,0,0,0-3.74-1.07,18.51,18.51,0,0,0-3.21-.32A8.15,8.15,0,0,0,832,342a3.47,3.47,0,0,0-1.65,3.1,4.14,4.14,0,0,0,1.09,3,8,8,0,0,0,2.89,1.87,41.35,41.35,0,0,0,4,1.36c1.44.43,2.87.91,4.3,1.42a18,18,0,0,1,4,2,9.22,9.22,0,0,1,2.89,3.13,9.66,9.66,0,0,1,1.06,4.78,9.34,9.34,0,0,1-1.81,5.75,11.82,11.82,0,0,1-5,3.77,18.75,18.75,0,0,1-7.3,1.34,21.06,21.06,0,0,1-5.72-.78,24,24,0,0,1-5.22-2.11,22.82,22.82,0,0,1-4.36-3.1l2.73-5.19a22.35,22.35,0,0,0,4.09,3,20.54,20.54,0,0,0,4.39,1.87,15.42,15.42,0,0,0,4.19.64,8.88,8.88,0,0,0,5.16-1.29,4.08,4.08,0,0,0,1.85-3.58,4.2,4.2,0,0,0-1.1-3,8.36,8.36,0,0,0-2.88-1.9,32.19,32.19,0,0,0-4-1.33c-1.44-.4-2.89-.85-4.33-1.37a18.25,18.25,0,0,1-4-1.95,9.08,9.08,0,0,1-2.89-3.05,9.32,9.32,0,0,1-1.09-4.76,9,9,0,0,1,1.71-5.48,11.07,11.07,0,0,1,4.78-3.61,18.53,18.53,0,0,1,7.14-1.28A23.6,23.6,0,0,1,844,336.3a24,24,0,0,1,6,2.78Z"/><path class="cls-1" d="M868.61,335.71h6.31v37.43h-6.31Z"/><path class="cls-1" d="M923.21,345a15.92,15.92,0,0,0-5-3.18,15.42,15.42,0,0,0-5.81-1.15,13.3,13.3,0,0,0-5.34,1.07,13.72,13.72,0,0,0-4.33,2.94,13.53,13.53,0,0,0-2.92,4.36,13.85,13.85,0,0,0-1,5.37,14,14,0,0,0,1,5.4,13.79,13.79,0,0,0,2.92,4.42,13.59,13.59,0,0,0,4.35,3,13.36,13.36,0,0,0,5.38,1.07,15.14,15.14,0,0,0,5.43-1.07,18.35,18.35,0,0,0,5.05-2.88l3.64,4.38a22.74,22.74,0,0,1-4.31,2.57,26.44,26.44,0,0,1-5,1.74,23.26,23.26,0,0,1-5.19.61,20,20,0,0,1-7.73-1.47,19.62,19.62,0,0,1-6.25-4.09,18.78,18.78,0,0,1-5.7-13.64,18.2,18.2,0,0,1,1.53-7.46,18.88,18.88,0,0,1,4.25-6.07,19.26,19.26,0,0,1,6.39-4.06,21.34,21.34,0,0,1,7.88-1.44,21.72,21.72,0,0,1,5.27.64,23.66,23.66,0,0,1,5,1.82,18.21,18.21,0,0,1,4.17,2.83Zm-2.14,9.89h5.51v13.8h-5.51Z"/><path class="cls-1" d="M946.2,335.71h6.31v16.42h19.84V335.71h6.31v37.43h-6.31V357.47H952.51v15.67H946.2Z"/><path class="cls-1" d="M994.75,335.71h30v5.4h-11.87v32h-6.31v-32H994.75Z"/><path class="cls-1" d="M1061.54,335.71h30v5.4h-11.87v32h-6.31v-32h-11.82Z"/><path class="cls-1" d="M1122.13,335.34a20.82,20.82,0,0,1,7.78,1.44,19.14,19.14,0,0,1,10.53,10.13,18.2,18.2,0,0,1,1.53,7.46,18.59,18.59,0,0,1-1.53,7.52,19,19,0,0,1-4.22,6.12,19.46,19.46,0,0,1-6.31,4.09,21.32,21.32,0,0,1-15.56,0A19.46,19.46,0,0,1,1108,368a19.17,19.17,0,0,1-4.23-6.12,18.75,18.75,0,0,1-1.52-7.52,18.49,18.49,0,0,1,1.52-7.48,18.85,18.85,0,0,1,4.23-6.07,19.33,19.33,0,0,1,6.31-4A20.78,20.78,0,0,1,1122.13,335.34Zm0,5.34a13,13,0,0,0-5.21,1.05,13.89,13.89,0,0,0-7.19,18,14,14,0,0,0,2.94,4.42,13.71,13.71,0,0,0,4.3,3,13,13,0,0,0,10.32,0,13.17,13.17,0,0,0,4.25-3,14.16,14.16,0,0,0,2.87-4.42,14,14,0,0,0,1-5.4,13.76,13.76,0,0,0-3.91-9.73,13.12,13.12,0,0,0-9.41-4Z"/><path class="cls-1" d="M1184.53,335.71h6.31v37.43h-6.31Z"/><path class="cls-1" d="M1211.38,335.71h7.32l12.94,25.4,12.84-25.4h7.32v37.43H1246l-.06-28.61-12.3,24.71h-4l-12.4-24.71v28.61h-5.83Z"/><path class="cls-1" d="M1287.26,335.71q7,0,10.93,3.34t3.88,9.39c0,4.2-1.29,7.48-3.88,9.81s-6.23,3.5-10.93,3.5h-11.39l2.78-2.78v14.17h-6.31V335.71Zm-.27,20.64c2.89,0,5.11-.63,6.68-1.9s2.36-3.21,2.36-5.85a6.72,6.72,0,0,0-2.36-5.64,10.6,10.6,0,0,0-6.68-1.85h-11.12l2.78-2.78v20.8l-2.78-2.78Z"/><path class="cls-1" d="M1328.32,335.71h6.48l16.36,37.43h-6.74l-13.05-31.07-13,31.07h-6.58ZM1320,359.13h22.4v5.35H1320Z"/><path class="cls-1" d="M1393,345.44a15,15,0,0,0-4.82-3.53,13.26,13.26,0,0,0-18,7,14.51,14.51,0,0,0,0,10.69,13.21,13.21,0,0,0,2.86,4.36,13.58,13.58,0,0,0,4.27,2.94,12.9,12.9,0,0,0,5.22,1.07,13.68,13.68,0,0,0,5.56-1.2,16.6,16.6,0,0,0,4.87-3.29l3.74,3.9a20.75,20.75,0,0,1-4.25,3.26,21.83,21.83,0,0,1-5,2.14,18.78,18.78,0,0,1-5.26.75,19.68,19.68,0,0,1-7.65-1.47,19,19,0,0,1-10.32-10.21,18.91,18.91,0,0,1-1.5-7.52,18.52,18.52,0,0,1,1.5-7.46,18.89,18.89,0,0,1,4.2-6.07,19.37,19.37,0,0,1,6.25-4.06,20.41,20.41,0,0,1,7.73-1.44,20.1,20.1,0,0,1,5.24.69,21.74,21.74,0,0,1,4.87,2,19.1,19.1,0,0,1,4.12,3.1Z"/><path class="cls-1" d="M1409.39,335.71h30v5.4h-11.87v32h-6.31v-32h-11.82Z"/><circle class="cls-1" cx="519.1" cy="263.93" r="5.11"/><path class="cls-1" d="M146.19,215a66.79,66.79,0,0,0,12.27,38.61H118.11c-10.12-23.92-10-54.45.41-78.22h40.66A66.71,66.71,0,0,0,146.19,215Z"/><path class="cls-1" d="M253.17,120.3V161c-21.49-17-56.61-17.43-78.52-.9V119.78C198.66,109.61,229.34,109.82,253.17,120.3Z"/><path class="cls-1" d="M253.17,268.86v40.73c-23.83,10.49-54.51,10.69-78.52.52V269.75C196.56,286.29,231.69,285.86,253.17,268.86Z"/><path class="cls-1" d="M316,215a102.13,102.13,0,0,1-7.54,38.61H268.11c16.44-21.82,16.09-56.74-.71-78.22H308A102.08,102.08,0,0,1,316,215Z"/><path class="cls-1" d="M382,343.36l-.13.16.12-.17Z"/><path class="cls-1" d="M376.53,350.07A213.8,213.8,0,0,1,278.79,416V362.09a163.57,163.57,0,0,0,56.86-41.81Z"/><path class="cls-1" d="M382,343.36l-.13.16.12-.17Z"/><path class="cls-1" d="M383.74,85.26l-46.16,23A163.62,163.62,0,0,0,278.79,64.2V10.28A214.08,214.08,0,0,1,383.74,85.26Z"/><path class="cls-1" d="M360.07,283.34l44.14,24.57c-.43.86-.87,1.73-1.32,2.6q-1.15,2.24-2.38,4.47c-.29.55-.59,1.09-.89,1.62-.74,1.35-1.51,2.69-2.29,4l-.44.76c-.45.76-.9,1.51-1.36,2.26-.57.93-1.14,1.85-1.7,2.74L350,301.3c.59-.91,1.18-1.83,1.75-2.77.47-.75.93-1.51,1.38-2.27.25-.41.49-.82.73-1.23s.34-.57.49-.86q.5-.84,1-1.68c.43-.75.84-1.51,1.25-2.27s.82-1.52,1.21-2.29.79-1.53,1.17-2.29.76-1.53,1.12-2.3Z"/><path class="cls-1" d="M417.91,273c-.6,2.08-1.28,4.27-2,6.49l-.75,2.23c-.26.76-.52,1.52-.79,2.28-.14.4-.28.8-.43,1.19s-.32.9-.49,1.34q-2.12,5.73-4.55,11.35L365.72,273,417.9,273Z"/><path class="cls-1" d="M253.17,3.73V55.38a162.41,162.41,0,0,0-39.89-5h0a161.85,161.85,0,0,0-39.26,5V3.72A212,212,0,0,1,253.17,3.73Z"/><path class="cls-1" d="M253.17,370.92v51.65a214.78,214.78,0,0,1-78.52.24V371.23A163.83,163.83,0,0,0,253.17,370.92Z"/><path class="cls-1" d="M426.46,213.15a213.43,213.43,0,0,1-3.85,40.4H370.93a164.06,164.06,0,0,0,.64-78.21H423.1A213.2,213.2,0,0,1,426.46,213.15Z"/><path class="cls-1" d="M148.43,362.37v53.86C25.27,378.77-36.92,230.44,23.13,116.67l45,22.87C25.22,220.29,64.11,327.39,148.43,362.37Z"/><path class="cls-1" d="M8.91,152.26c-.05.13-.08.27-.12.4h0C8.83,152.53,8.87,152.39,8.91,152.26Z"/><path class="cls-1" d="M87.45,39.26c-32.79.56-32.79,49.33,0,49.89C120.23,88.59,120.23,39.82,87.45,39.26Z"/><path class="cls-1" d="M396,103.46l-44.89,23.31a164.57,164.57,0,0,1,9.76,17.89l44.27-24.37Z"/><path class="cls-1" d="M409.73,130.3l-44,25.75,52.87-.59a231.92,231.92,0,0,0-8.83-25.16Z"/><path class="cls-1" d="M404.21,307.91c-.43.86-.87,1.73-1.32,2.6q-1.15,2.24-2.38,4.47c-.29.55-.59,1.09-.89,1.62-.75,1.35-1.52,2.69-2.29,4l-.44.76c-.45.76-.9,1.51-1.36,2.26-.57.93-1.14,1.85-1.7,2.74L350,301.3c.59-.91,1.18-1.83,1.75-2.77.47-.75.93-1.51,1.38-2.27.25-.41.49-.82.73-1.23s.34-.57.49-.86q.5-.84,1-1.68c.43-.75.84-1.51,1.25-2.27s.81-1.52,1.21-2.29.79-1.53,1.17-2.29.75-1.53,1.12-2.3h0Z"/><path class="cls-1" d="M417.91,273c-.6,2.08-1.28,4.27-2,6.49l-.75,2.23c-.26.76-.52,1.52-.79,2.28-.14.4-.28.8-.43,1.19s-.32.9-.49,1.34c-1.45,4-3,7.87-4.54,11.36a0,0,0,0,1,0,0L365.72,273,417.9,273Z"/></g></g></svg>